<?xml version="1.0" encoding="UTF-8" standalone="no"?>
<!-- Created with Inkscape (http://www.inkscape.org/) -->

<svg
   xmlns:dc="http://purl.org/dc/elements/1.1/"
   xmlns:cc="http://creativecommons.org/ns#"
   xmlns:rdf="http://www.w3.org/1999/02/22-rdf-syntax-ns#"
   xmlns:svg="http://www.w3.org/2000/svg"
   xmlns="http://www.w3.org/2000/svg"
   xmlns:sodipodi="http://sodipodi.sourceforge.net/DTD/sodipodi-0.dtd"
   xmlns:inkscape="http://www.inkscape.org/namespaces/inkscape"
   width="256"
   height="64"
   viewBox="0 0 67.733332 16.933334"
   version="1.1"
   id="svg8"
   inkscape:version="0.92.2 (5c3e80d, 2017-08-06)"
   sodipodi:docname="upgrade_btn.svg">
  <defs
     id="defs2">
    <inkscape:path-effect
       effect="bounding_box"
       id="path-effect3738"
       is_visible="true"
       linkedpath=""
       visualbounds="false" />
    <inkscape:path-effect
       effect="show_handles"
       id="path-effect3728"
       is_visible="true"
       nodes="true"
       handles="true"
       original_path="true"
       scale_nodes_and_handles="10" />
    <inkscape:path-effect
       effect="fill_between_strokes"
       id="path-effect3726"
       is_visible="true"
       linkedpath=""
       secondpath=""
       reversesecond="false" />
    <inkscape:path-effect
       effect="gears"
       id="path-effect3721"
       is_visible="true"
       teeth="17"
       phi="20"
       min_radius="5" />
    <inkscape:path-effect
       effect="bend_path"
       id="path-effect3719"
       is_visible="true"
       bendpath="M 0,288.64672 H 67.73333"
       prop_scale="30.01"
       scale_y_rel="false"
       vertical="false" />
    <inkscape:path-effect
       effect="roughen"
       id="path-effect3715"
       is_visible="true"
       method="segments"
       max_segment_size="10"
       segments="2"
       displace_x="10;1"
       displace_y="10;1"
       global_randomize="1;1"
       handles="along"
       shift_nodes="true"
       fixed_displacement="false"
       spray_tool_friendly="false" />
    <inkscape:path-effect
       effect="knot"
       id="path-effect3713"
       is_visible="true"
       interruption_width="10"
       prop_to_stroke_width="true"
       add_stroke_width="true"
       add_other_stroke_width="true"
       switcher_size="15"
       crossing_points_vector="" />
    <inkscape:path-effect
       effect="bounding_box"
       id="path-effect3710"
       is_visible="true"
       linkedpath=""
       visualbounds="true" />
    <inkscape:path-effect
       effect="bounding_box"
       id="path-effect17"
       is_visible="true"
       linkedpath=""
       visualbounds="false" />
  </defs>
  <sodipodi:namedview
     id="base"
     pagecolor="#ffffff"
     bordercolor="#666666"
     borderopacity="1.0"
     inkscape:pageopacity="0.0"
     inkscape:pageshadow="2"
     inkscape:zoom="2.8284271"
     inkscape:cx="76.475176"
     inkscape:cy="25.215015"
     inkscape:document-units="mm"
     inkscape:current-layer="layer1"
     showgrid="false"
     units="px"
     inkscape:window-width="1680"
     inkscape:window-height="987"
     inkscape:window-x="-8"
     inkscape:window-y="-8"
     inkscape:window-maximized="1" />
  <metadata
     id="metadata5">
    <rdf:RDF>
      <cc:Work
         rdf:about="">
        <dc:format>image/svg+xml</dc:format>
        <dc:type
           rdf:resource="http://purl.org/dc/dcmitype/StillImage" />
        <dc:title></dc:title>
      </cc:Work>
    </rdf:RDF>
  </metadata>
  <g
     inkscape:label="Layer 1"
     inkscape:groupmode="layer"
     id="layer1"
     transform="translate(0,-280.06665)">
    <path
       style="fill:#916f6f;stroke:none;stroke-width:0.26202002;stroke-opacity:1"
       d="M 0.13101001,280.19766 H 67.602323 v 16.67132 H 0.13101001 Z"
       id="rect3723" />
    <text
       xml:space="preserve"
       style="font-style:normal;font-weight:normal;font-size:9.43568611px;line-height:1.25;font-family:sans-serif;letter-spacing:0px;word-spacing:0px;fill:#0000ff;fill-opacity:1;stroke:none;stroke-width:0.23589216"
       x="22.745852"
       y="280.0871"
       id="text12"
       transform="scale(0.95888207,1.0428811)"><tspan
         sodipodi:role="line"
         id="tspan10"
         x="22.745852"
         y="280.0871"
         style="fill:#0000ff;stroke-width:0.23589216">UPGRADE</tspan></text>
    <path
       style="fill:#c8ab37;stroke:#000000;stroke-width:0.005;stroke-opacity:1;stroke-miterlimit:4;stroke-dasharray:none"
       d="m 9.1715524,289.88056 c 0,0 -0.3411466,0.0353 -0.9132792,-0.30498 -0.00469,-0.13211 -0.00469,-0.26433 0,-0.39644 0.5721326,-0.34031 0.9132792,-0.30498 0.9132792,-0.30498 l 0.2850495,0.0307 c 0.024423,-0.22673 0.066388,-0.45123 0.125519,-0.67147 l -0.2768925,-0.0743 c 0,0 -0.3308739,-0.0903 -0.7414358,-0.6143 0.043349,-0.12488 0.091115,-0.24818 0.1432084,-0.36966 0.6564336,-0.11066 0.9617793,0.0455 0.9617793,0.0455 l 0.2547088,0.13161 c 0.1046779,-0.2026 0.2249069,-0.39678 0.3596049,-0.58079 l -0.23134,-0.16934 c 0,0 -0.2759143,-0.20372 -0.4694568,-0.84066 0.085532,-0.10078 0.1746135,-0.1985 0.2670757,-0.29296 0.6520791,0.13394 0.8803861,0.38988 0.8803861,0.38988 l 0.189968,0.21473 c 0.170796,-0.1511 0.35305,-0.28873 0.545124,-0.41166 l -0.154543,-0.24148 c 0,0 -0.183692,-0.28963 -0.134076,-0.95347 0.116164,-0.0631 0.234529,-0.12202 0.354873,-0.17671 0.559659,0.36046 0.680091,0.68159 0.680091,0.68159 l 0.09957,0.26886 c 0.213847,-0.0792 0.433512,-0.1417 0.657022,-0.18694 l -0.05688,-0.281 c 0,0 -0.06666,-0.33643 0.219413,-0.93753 0.131107,-0.0168 0.26277,-0.029 0.394742,-0.0366 0.391653,0.53829 0.387947,0.88124 0.387947,0.88124 l -0.0043,0.28667 c 0.228017,0.003 0.455426,0.0245 0.680185,0.063 l 0.04847,-0.28257 c 0,0 0.05937,-0.33779 0.543269,-0.79495 0.128343,0.0316 0.255523,0.0678 0.3813,0.10849 0.170752,0.64342 0.04341,0.96188 0.04341,0.96188 l -0.107541,0.26576 c 0.211392,0.0855 0.415833,0.18734 0.611485,0.30448 l 0.147278,-0.24597 c 0,0 0.17739,-0.29354 0.793754,-0.54502 0.108246,0.0759 0.213766,0.15555 0.31636,0.2389 -0.07321,0.66166 -0.306993,0.91261 -0.306993,0.91261 l -0.196284,0.20897 c 0.166217,0.15612 0.320078,0.3249 0.460201,0.50481 l 0.226189,-0.17616 c 0,0 0.271448,-0.20964 0.937038,-0.22148 0.07353,0.10984 0.143138,0.22227 0.208695,0.33705 -0.307284,0.59053 -0.615934,0.74008 -0.615934,0.74008 l -0.258518,0.12395 c 0.09859,0.20563 0.181096,0.41859 0.246764,0.63698 l 0.274554,-0.0826 c 0,0 0.328846,-0.0974 0.953769,0.13197 0.02888,0.12899 0.05318,0.25897 0.07285,0.38968 -0.499859,0.43965 -0.841689,0.46761 -0.841689,0.46761 l -0.285838,0.0222 c 0.01765,0.22736 0.01765,0.45574 0,0.6831 l 0.285838,0.0222 c 0,0 0.34183,0.028 0.841689,0.46761 -0.01966,0.13071 -0.04396,0.26069 -0.07285,0.38968 -0.624923,0.22939 -0.953769,0.13197 -0.953769,0.13197 l -0.274554,-0.0826 c -0.06567,0.21839 -0.14817,0.43135 -0.246764,0.63698 l 0.258518,0.12395 c 0,0 0.30865,0.14955 0.615934,0.74008 -0.06556,0.11478 -0.135165,0.22721 -0.208695,0.33705 -0.66559,-0.0118 -0.937038,-0.22148 -0.937038,-0.22148 l -0.226189,-0.17616 c -0.140123,0.17991 -0.293984,0.34869 -0.460201,0.50481 l 0.196284,0.20897 c 0,0 0.233784,0.25095 0.306993,0.91261 -0.102594,0.0833 -0.208114,0.16304 -0.31636,0.2389 -0.616364,-0.25148 -0.793754,-0.54502 -0.793754,-0.54502 l -0.147278,-0.24597 c -0.195652,0.11714 -0.400093,0.21894 -0.611485,0.30448 l 0.107541,0.26576 c 0,0 0.127344,0.31846 -0.04341,0.96188 -0.125777,0.0407 -0.252957,0.0768 -0.3813,0.10849 -0.483895,-0.45716 -0.543269,-0.79495 -0.543269,-0.79495 l -0.04847,-0.28257 c -0.224759,0.0385 -0.452168,0.0596 -0.680185,0.063 l 0.0043,0.28667 c 0,0 0.0037,0.34295 -0.387947,0.88124 -0.131972,-0.008 -0.263635,-0.0197 -0.394742,-0.0366 -0.286073,-0.6011 -0.219413,-0.93753 -0.219413,-0.93753 l 0.05688,-0.281 c -0.22351,-0.0452 -0.443175,-0.10774 -0.657022,-0.18694 l -0.09957,0.26886 c 0,0 -0.120432,0.32113 -0.680091,0.68159 -0.120344,-0.0547 -0.238709,-0.11363 -0.354873,-0.17671 -0.04962,-0.66384 0.134076,-0.95347 0.134076,-0.95347 l 0.154543,-0.24148 c -0.192074,-0.12293 -0.374328,-0.26056 -0.545124,-0.41166 l -0.189968,0.21473 c 0,0 -0.228307,0.25594 -0.8803861,0.38988 -0.092462,-0.0945 -0.1815435,-0.19218 -0.2670757,-0.29296 0.1935425,-0.63694 0.4694568,-0.84066 0.4694568,-0.84066 l 0.23134,-0.16934 c -0.134698,-0.18401 -0.254927,-0.37819 -0.3596049,-0.58079 l -0.2547088,0.13161 c 0,0 -0.3053457,0.15618 -0.9617793,0.0455 -0.052093,-0.12148 -0.099859,-0.24478 -0.1432084,-0.36966 0.4105619,-0.52401 0.7414358,-0.6143 0.7414358,-0.6143 l 0.2768925,-0.0743 c -0.059131,-0.22024 -0.1010961,-0.44474 -0.125519,-0.67147 l -0.2850495,0.0307 m -6.5787445,0.059 c 0,0 -0.3144531,0.0518 -0.8209145,-0.28831 -0.00714,-0.11855 -0.00875,-0.23736 -0.00483,-0.35605 0.4970454,-0.35378 0.8127894,-0.31048 0.8127894,-0.31048 l 0.3890467,0.0565 c 0.032463,-0.22366 0.093436,-0.44224 0.1814314,-0.65041 l -0.3621017,-0.15307 c 0,0 -0.2925646,-0.12639 -0.5347245,-0.68636 0.058084,-0.10358 0.1209625,-0.20441 0.188431,-0.30214 0.6094055,-0.0289 0.8516196,0.17824 0.8516196,0.17824 l 0.2967584,0.25783 c 0.1482304,-0.1706 0.3176996,-0.32152 0.504272,-0.44907 l -0.2218673,-0.32453 c 0,0 -0.177789,-0.2645 -0.078763,-0.8665 0.1048657,-0.0557 0.2122714,-0.10657 0.3218677,-0.15231 0.5282837,0.30517 0.6200665,0.61036 0.6200665,0.61036 l 0.1102516,0.37735 c 0.2169357,-0.0634 0.4410957,-0.0987 0.6670098,-0.10516 l -0.011192,-0.39296 c 0,0 -0.00657,-0.31863 0.4022048,-0.77153 0.1183534,0.01 0.2361857,0.0251 0.3531138,0.0459 0.2794355,0.54233 0.1916467,0.8487 0.1916467,0.8487 l -0.1112595,0.37705 c 0.2167657,0.064 0.4244473,0.15543 0.6179768,0.27215 l 0.2030372,-0.33663 c 0,0 0.1667407,-0.2716 0.7554757,-0.4316 0.094265,0.0722 0.1851127,0.14882 0.2722486,0.22951 -0.058131,0.60731 -0.2976195,0.81759 -0.2976195,0.81759 l -0.2974464,0.25704 c 0.1477739,0.171 0.2730397,0.36022 0.3727405,0.56305 l 0.3528032,-0.17342 c 0,0 0.2871089,-0.13834 0.8688883,0.0453 0.040248,0.11173 0.075268,0.22528 0.1049466,0.34027 -0.3772421,0.47947 -0.6923938,0.52689 -0.6923938,0.52689 l -0.3891961,0.0554 c 0.031865,0.22374 0.034944,0.45065 0.00916,0.67518 l 0.3905568,0.0448 c 0,0 0.3163221,0.0388 0.7064351,0.50791 -0.026548,0.11575 -0.058474,0.23021 -0.095675,0.34299 -0.5765811,0.19941 -0.8673378,0.0689 -0.8673378,0.0689 L 7.9948861,290.5242 c -0.094161,0.20546 -0.2142462,0.39801 -0.3573259,0.57296 l 0.3043113,0.24888 c 0,0 0.2451052,0.20369 0.3196937,0.80921 -0.084915,0.083 -0.1736511,0.16205 -0.2659211,0.23681 -0.5928596,-0.14397 -0.7669082,-0.41094 -0.7669082,-0.41094 l -0.2120964,-0.331 c -0.1902912,0.12193 -0.3954147,0.21899 -0.610365,0.28881 l 0.1214491,0.3739 c 0,0 0.096069,0.30387 -0.1685482,0.85359 -0.1163214,0.0239 -0.2336949,0.0424 -0.3517386,0.0555 -0.4209095,-0.44164 -0.4229908,-0.76033 -0.4229908,-0.76033 l 5.253e-4,-0.39312 c -0.2260055,-3.1e-4 -0.4510419,-0.0296 -0.6696176,-0.087 l -0.099972,0.38019 c 0,0 -0.083468,0.30758 -0.6032772,0.62697 -0.110797,-0.0428 -0.2195422,-0.0906 -0.3258817,-0.14352 -0.1153234,-0.59909 0.055223,-0.86831 0.055223,-0.86831 l 0.2129802,-0.33044 c -0.1899647,-0.12244 -0.3634664,-0.2687 -0.5162713,-0.43523 l -0.2896532,0.2658 c 0,0 -0.2365049,0.21362 -0.84647,0.20128 -0.070095,-0.0959 -0.1356864,-0.19495 -0.1965596,-0.29692 0.2268769,-0.56634 0.5159044,-0.70062 0.5159044,-0.70062 l 0.3578153,-0.16283 c -0.093611,-0.20571 -0.1604929,-0.42256 -0.1990125,-0.64526 l -0.3873712,0.067 M 0,0"
       id="rect14"
       inkscape:path-effect="#path-effect3721"
       inkscape:original-d="m 5.5885081,289.37736 h 8.2544839 v 0.044 H 5.5885081 Z"
       inkscape:connector-curvature="0" />
  </g>
</svg>
